<?xml version="1.0" encoding="iso-8859-1"?>
<!-- Generator: Adobe Illustrator 19.0.0, SVG Export Plug-In . SVG Version: 6.00 Build 0)  -->
<!-- License: CC0. Made by SVG Repo: https://www.svgrepo.com/svg/130079/user -->
<svg version="1.1" id="Layer_1" xmlns="http://www.w3.org/2000/svg" xmlns:xlink="http://www.w3.org/1999/xlink" x="0px" y="0px"
    viewBox="0 0 512 512" style="enable-background:new 0 0 512 512;" xml:space="preserve">
<g>
	<circle style="fill:#B583EB;" cx="236.827" cy="127.869" r="117.669"/>
    <path style="fill:#B583EB;" d="M338.717,345.202c17.112-17.112,39.301-26.032,61.719-26.801
		c-40.295-44.73-98.662-72.857-163.605-72.857c-121.583,0-220.146,98.562-220.146,220.146h313.943
		C303.149,429.718,305.829,378.09,338.717,345.202z"/>
</g>
    <path style="fill:#FFFFFF
;" d="M468.487,345.202c-18.722-18.722-43.523-27.642-68.05-26.801
	c-22.417,0.769-44.606,9.688-61.719,26.801c-32.887,32.887-35.568,84.516-8.09,120.488c2.462,3.223,5.143,6.333,8.09,9.281
	c35.835,35.835,93.934,35.835,129.769,0C504.321,439.137,504.321,381.037,468.487,345.202z"/>
    <path d="M475.699,337.989c-19.549-19.548-45.123-29.476-70.799-29.801c-1.7-1.814-3.424-3.611-5.19-5.378
	c-29.765-29.765-66.243-50.374-106.018-60.428c42.052-20.966,71.01-64.417,71.01-114.511C364.703,57.364,307.341,0,236.831,0
	S108.958,57.364,108.958,127.872c0,50.094,28.958,93.545,71.01,114.511c-39.774,10.054-76.253,30.664-106.018,60.428
	C30.445,346.319,6.485,404.163,6.485,465.691c0,5.634,4.568,10.2,10.2,10.2h309.036c1.826,2.157,3.75,4.26,5.782,6.294
	C351.381,502.062,377.491,512,403.603,512c26.11,0,52.22-9.939,72.098-29.815l0,0C515.453,442.43,515.453,377.745,475.699,337.989z
	 M129.358,127.872c0-59.26,48.212-107.472,107.473-107.472s107.472,48.212,107.472,107.472s-48.212,107.473-107.472,107.473
	S129.358,187.133,129.358,127.872z M27.13,455.491c5.338-111.046,97.355-199.746,209.701-199.746
	c54.716,0,104.601,21.047,142.007,55.462c-17.357,4.317-33.792,13.241-47.333,26.783c-31.735,31.735-38.133,79.355-19.203,117.501
	H27.13z M461.274,467.759c-31.8,31.8-83.544,31.801-115.344,0s-31.8-83.544,0-115.344c15.902-15.902,36.784-23.851,57.673-23.851
	c20.884,0,41.774,7.952,57.672,23.85C493.074,384.215,493.074,435.959,461.274,467.759z"/>
    <path d="M59.965,433.237c-0.788,0-1.59-0.092-2.392-0.285c-5.476-1.317-8.851-6.823-7.535-12.301
	c11.978-49.846,44.199-93.579,88.403-119.988c4.84-2.889,11.099-1.311,13.988,3.526c2.889,4.836,1.311,11.099-3.525,13.987
	c-39.522,23.609-68.326,62.697-79.03,107.24C68.751,430.095,64.573,433.237,59.965,433.237z"/>
    <path d="M194.655,298.903c-4.618,0-8.803-3.158-9.916-7.847c-1.301-5.482,2.088-10.979,7.569-12.28
	c14.504-3.443,29.483-5.188,44.522-5.188c5.633,0,10.2,4.567,10.2,10.2c0,5.634-4.568,10.2-10.2,10.2
	c-13.455,0-26.849,1.56-39.81,4.636C196.228,298.814,195.436,298.903,194.655,298.903z"/>
    <path style="fill:#B583EB;" d="M408.266,362.148l3.382,10.41c3.731,11.482,14.43,19.256,26.503,19.256h10.947
	c4.421,0,6.258,5.656,2.682,8.255l-8.856,6.434c-9.767,7.096-13.854,19.675-10.124,31.156l3.382,10.41
	c1.366,4.203-3.446,7.7-7.022,5.102l-8.856-6.434c-9.767-7.096-22.993-7.096-32.76,0l-8.856,6.434
	c-3.576,2.598-8.388-0.898-7.022-5.102l3.382-10.41c3.731-11.482-0.356-24.06-10.124-31.156l-8.856-6.434
	c-3.576-2.598-1.738-8.255,2.682-8.255h10.947c12.073,0,22.773-7.774,26.503-19.256l3.382-10.41
	C400.953,357.944,406.9,357.944,408.266,362.148z"/>
    <path d="M431.844,464.253c-3.041,0-6.082-0.943-8.677-2.827l-8.857-6.435c-6.213-4.514-14.558-4.513-20.769,0l-8.856,6.434
	c-5.192,3.772-12.167,3.77-17.357,0c-5.19-3.771-7.345-10.404-5.363-16.505l3.382-10.412c2.373-7.302-0.206-15.24-6.418-19.753
	l-8.856-6.434c-5.191-3.772-7.345-10.405-5.363-16.507c1.983-6.101,7.626-10.2,14.041-10.2h10.947
	c7.677,0,14.429-4.906,16.802-12.208l3.382-10.411c1.984-6.102,7.627-10.201,14.042-10.201s12.057,4.099,14.041,10.2
	c0.001,0,0.001,0,0.001,0l3.382,10.411c2.372,7.302,9.124,12.208,16.802,12.208h10.947c6.415,0,12.057,4.099,14.041,10.2
	c1.982,6.102-0.172,12.735-5.363,16.506l-8.856,6.434c-6.212,4.513-8.791,12.45-6.418,19.753l3.382,10.41
	c1.982,6.102-0.173,12.735-5.363,16.506C437.927,463.31,434.885,464.253,431.844,464.253z M374.984,401.652
	c9.139,8.793,13.282,21.538,11.055,34.023c11.187-5.974,24.59-5.973,35.774,0c-2.225-12.485,1.917-25.231,11.055-34.023
	c-12.563-1.741-23.404-9.618-28.942-21.028C398.388,392.033,387.548,399.91,374.984,401.652z"/>
</svg>
